<?xml version="1.0" encoding="utf-8"?>
<!-- Generator: Adobe Illustrator 21.0.0, SVG Export Plug-In . SVG Version: 6.00 Build 0)  -->
<svg version="1.1" id="Layer_1" xmlns="http://www.w3.org/2000/svg" xmlns:xlink="http://www.w3.org/1999/xlink" x="0px" y="0px"
	 viewBox="0 0 186.2 56.2" style="enable-background:new 0 0 186.2 56.2;" xml:space="preserve">
<style type="text/css">
	.st0{fill:#538ECB;}
	.st1{fill:url(#SVGID_1_);}
	.st2{fill:url(#SVGID_2_);}
	.st3{fill:#FFFFFF;}
</style>
<g>
	<ellipse class="st0" cx="111.6" cy="28.5" rx="26.8" ry="26"/>
	<radialGradient id="SVGID_1_" cx="119.2732" cy="29.5668" r="16.6875" gradientUnits="userSpaceOnUse">
		<stop  offset="0" style="stop-color:#2B79B3"/>
		<stop  offset="0.4271" style="stop-color:#2977B1"/>
		<stop  offset="0.6581" style="stop-color:#2170AC"/>
		<stop  offset="0.8418" style="stop-color:#1365A3"/>
		<stop  offset="1" style="stop-color:#005597"/>
	</radialGradient>
	<circle class="st1" cx="119.3" cy="29.6" r="16.7"/>
	<radialGradient id="SVGID_2_" cx="119.2618" cy="29.6198" r="15.0732" gradientUnits="userSpaceOnUse">
		<stop  offset="0" style="stop-color:#2B79B3"/>
		<stop  offset="0.4271" style="stop-color:#2977B1"/>
		<stop  offset="0.6581" style="stop-color:#2170AC"/>
		<stop  offset="0.8418" style="stop-color:#1365A3"/>
		<stop  offset="1" style="stop-color:#005597"/>
	</radialGradient>
	<circle class="st2" cx="119.3" cy="29.6" r="15.1"/>
	<path class="st3" d="M6,45.9H2.9l6.8-32.7h4l6.8,32.7h-3.1l-1.7-8.5H7.7L6,45.9z M8.1,35.4h7.2l-3.6-19.3L8.1,35.4z"/>
	<path class="st3" d="M30.7,45.9V15.5H24v-2.3h16.5v2.3h-6.8v30.4H30.7z"/>
	<path class="st3" d="M46.2,36.4V22.7c0-1.2,0.1-2.2,0.3-3.2c0.2-1,0.5-1.9,0.9-2.7c0.4-0.9,1-1.6,1.6-2.2c0.7-0.6,1.5-1.1,2.5-1.4
		c1-0.3,2.2-0.5,3.5-0.5c1.3,0,2.5,0.2,3.5,0.5c1,0.3,1.8,0.8,2.5,1.4c0.7,0.6,1.2,1.3,1.6,2.2c0.4,0.9,0.7,1.8,0.9,2.7
		c0.2,1,0.3,2,0.3,3.2v13.7c0,6.7-2.9,10-8.8,10C49.1,46.4,46.2,43,46.2,36.4z M60.7,37V22c0-4.7-1.9-7-5.7-7c-3.8,0-5.7,2.3-5.7,7
		v15c0,4.7,1.9,7,5.7,7C58.8,44.1,60.7,41.7,60.7,37z"/>
	<path class="st3" d="M73.1,45.9V13.1h3v30.4h9.6v2.3H73.1z"/>
	<path class="st3" d="M91.7,45.9V13.1h3v30.4h9.6v2.3H91.7z"/>
	<path class="st3" d="M141.2,36.7V22.8c0-6.8,3-10.2,9.1-10.2c1,0,1.8,0.1,2.6,0.3c0.8,0.2,1.4,0.5,2,0.8c0.5,0.3,1,0.8,1.4,1.3
		c0.4,0.5,0.7,1.1,1,1.7s0.4,1.3,0.6,2c0.1,0.8,0.2,1.5,0.3,2.3c0.1,0.7,0.1,1.5,0.1,2.4v0.2h-3v-0.2c0,0,0-0.1,0-0.2
		c0-0.9,0-1.6,0-2.1c0-0.5-0.1-1.1-0.1-1.9c-0.1-0.8-0.2-1.4-0.4-1.8c-0.2-0.4-0.5-0.8-0.8-1.3c-0.3-0.5-0.8-0.8-1.4-1
		c-0.6-0.2-1.3-0.3-2.1-0.3c-1.1,0-2.1,0.2-2.9,0.5s-1.4,0.9-1.9,1.5c-0.4,0.6-0.8,1.3-1,2.1s-0.3,1.6-0.3,2.5V38
		c0,0.8,0.1,1.6,0.2,2.3c0.2,0.7,0.4,1.3,0.8,1.9c0.4,0.6,1,1.1,1.8,1.4c0.8,0.3,1.8,0.5,2.9,0.5c1.1,0,2-0.2,2.7-0.5
		c0.7-0.4,1.3-0.8,1.7-1.5c0.4-0.6,0.6-1.3,0.8-1.9c0.2-0.7,0.2-1.4,0.2-2.2v-5.5h-4.2v-2.2h7.3v15.6h-1.3l-0.9-3.2
		c-0.5,1.1-1.3,2-2.4,2.7s-2.4,1-3.8,1c-0.9,0-1.8-0.1-2.5-0.2c-0.8-0.2-1.4-0.4-2-0.6c-0.6-0.3-1.1-0.6-1.5-1
		c-0.4-0.4-0.8-0.8-1.1-1.2c-0.3-0.4-0.5-0.8-0.8-1.4c-0.2-0.5-0.4-1-0.5-1.4c-0.1-0.4-0.2-0.9-0.2-1.4c-0.1-0.5-0.1-1-0.1-1.3
		C141.2,37.5,141.2,37.2,141.2,36.7z"/>
	<path class="st3" d="M172.3,45.9V35.7l-7.5-22.6h3.1c0.3,0.9,0.7,2.2,1.2,3.9c0.5,1.7,1,3.3,1.6,5.1c0.5,1.7,1.1,3.4,1.6,4.9
		c0.5,1.6,0.9,2.9,1.2,3.9l0.5,1.5c0.9-3,1.8-6.3,3-9.9s2.1-6.7,2.8-9.4h3l-7.3,22.6v10.2H172.3z"/>
	<path class="st3" d="M119.2,12.8c-9.3,0-16.9,7.5-16.9,16.8s7.6,16.8,16.9,16.8s16.9-7.5,16.9-16.8S128.6,12.8,119.2,12.8z
		 M119.2,43.3c-7.7,0-13.9-6.2-13.9-13.8c0-7.6,6.2-13.8,13.9-13.8s13.9,6.2,13.9,13.8C133.1,37.2,126.9,43.3,119.2,43.3z"/>
</g>
</svg>
