<?xml version="1.0" encoding="utf-8"?>
<!-- Generator: Adobe Illustrator 15.1.0, SVG Export Plug-In . SVG Version: 6.00 Build 0)  -->
<!DOCTYPE svg PUBLIC "-//W3C//DTD SVG 1.1//EN" "http://www.w3.org/Graphics/SVG/1.1/DTD/svg11.dtd">
<svg version="1.1" id="Layer_1" xmlns="http://www.w3.org/2000/svg" xmlns:xlink="http://www.w3.org/1999/xlink" x="0px" y="0px"
	 width="50px" height="25px" viewBox="0 0 50 25" enable-background="new 0 0 50 25" xml:space="preserve">
<g id="icomoon-ignore">
	<line fill="none" stroke="#479FD8" x1="25" y1="12.5" x2="25" y2="12.5"/>
</g>
<path fill="#FFFFFF" d="M13.075,12.12c0-0.208,0.08-0.393,0.24-0.552l1.194-1.194c0.16-0.159,0.343-0.241,0.55-0.241
	c0.207,0,0.39,0.082,0.55,0.241L25,19.765l9.391-9.391c0.159-0.159,0.343-0.241,0.55-0.241s0.391,0.082,0.55,0.241l1.195,1.194
	c0.159,0.159,0.239,0.344,0.239,0.552c0,0.206-0.08,0.389-0.239,0.548L25.551,23.804c-0.159,0.159-0.342,0.239-0.55,0.239
	c-0.208,0-0.391-0.08-0.55-0.239L13.317,12.668c-0.16-0.159-0.239-0.342-0.239-0.548H13.075z M13.075,2.941
	c0-0.206,0.08-0.39,0.24-0.549l1.194-1.195c0.16-0.16,0.343-0.24,0.55-0.24c0.207,0,0.39,0.08,0.55,0.24L25,10.588l9.391-9.391
	c0.159-0.16,0.343-0.24,0.55-0.24s0.391,0.08,0.55,0.24l1.195,1.195c0.159,0.16,0.239,0.343,0.239,0.549
	c0,0.208-0.08,0.391-0.239,0.55L25.551,14.626c-0.159,0.159-0.342,0.24-0.55,0.24c-0.208,0-0.391-0.081-0.55-0.24L13.317,3.492
	c-0.16-0.159-0.239-0.343-0.239-0.55H13.075z"/>
</svg>
