<?xml version="1.0" encoding="utf-8"?>
<!-- Generator: Adobe Illustrator 21.0.0, SVG Export Plug-In . SVG Version: 6.00 Build 0)  -->
<svg version="1.1" id="Layer_1" xmlns="http://www.w3.org/2000/svg" xmlns:xlink="http://www.w3.org/1999/xlink" x="0px" y="0px"
	 viewBox="0 0 1000 1000" style="enable-background:new 0 0 1000 1000;" xml:space="preserve">
<style type="text/css">
	.st0{fill:#FFFFFF;}
	.st1{fill:none;stroke:#00548A;stroke-miterlimit:10;}
	.st2{fill:#00548A;}
	.st3{fill:#A8D0EF;}
	.st4{fill:none;stroke:#295083;stroke-miterlimit:10;}
	.st5{fill:#A8D2F0;}
</style>
<path class="st0" d="M546.2,489.9h-21.7c-0.6,0-1,0.4-1,1v19.4h1.4v-3c0-0.8,0.7-1.4,1.5-1.4h0.5v-10.5c0-0.3-0.1-1.3-0.6-1.3
	l0.2-1.4c1.5,0.2,1.9,1.8,1.8,2.8v1.3h1.3v-1.9c3.6-0.7,8-0.7,11.7,0v1.8h1.3v-1.4c0-0.9,0.3-2.5,1.8-2.8l0.2,1.4
	c-0.6,0.1-0.6,1.3-0.6,1.3v10.5h0.4c0.8,0,1.5,0.6,1.5,1.4v3h1.2v-19.4C547.2,490.3,546.8,489.9,546.2,489.9"/>
<path class="st1" d="M546.2,489.9h-21.7c-0.6,0-1,0.4-1,1v19.4h1.4v-3c0-0.8,0.7-1.4,1.5-1.4h0.5v-10.5c0-0.3-0.1-1.3-0.6-1.3
	l0.2-1.4c1.5,0.2,1.9,1.8,1.8,2.8v1.3h1.3v-1.9c3.6-0.7,8-0.7,11.7,0v1.8h1.3v-1.4c0-0.9,0.3-2.5,1.8-2.8l0.2,1.4
	c-0.6,0.1-0.6,1.3-0.6,1.3v10.5h0.4c0.8,0,1.5,0.6,1.5,1.4v3h1.2v-19.4C547.2,490.3,546.8,489.9,546.2,489.9z"/>
<rect x="529.8" y="498.7" class="st0" width="11.3" height="2.9"/>
<rect x="529.8" y="498.7" class="st1" width="11.3" height="2.9"/>
<path class="st2" d="M539.7,506.4h-8.4v-0.9h8.4V506.4z M539.7,508.8h-8.4v-0.9h8.4V508.8z M539.7,511.3h-8.4v-0.9h8.4V511.3z
	 M541.8,504.3c0-0.4-0.3-0.6-0.7-0.6h-11.4c-0.4,0-0.7,0.3-0.7,0.6v6.1h-4.5v6.5c0,0.4,0.3,0.7,0.7,0.7h2.5c0.4,0,0.7-0.3,0.7-0.7
	v-0.9h13.9v0.9c0,0.4,0.3,0.7,0.7,0.7h2.5c0.4,0,0.7-0.3,0.7-0.7v-6.5h-4.5V504.3z"/>
<path class="st3" d="M528.9,510.1c0.1,0,0.3-0.1,0.3-0.2v-1.3c0-0.1-0.1-0.2-0.3-0.2h-1.6c-0.1,0-0.3,0.1-0.3,0.2v1.3
	c0,0.1,0.1,0.2,0.3,0.2H528.9z"/>
<path class="st1" d="M528.9,510.1c0.1,0,0.3-0.1,0.3-0.2v-1.3c0-0.1-0.1-0.2-0.3-0.2h-1.6c-0.1,0-0.3,0.1-0.3,0.2v1.3
	c0,0.1,0.1,0.2,0.3,0.2H528.9z"/>
<path class="st3" d="M544.7,510.1c0.1,0,0.3-0.1,0.3-0.2v-1.3c0-0.1-0.1-0.2-0.3-0.2h-1.6c-0.1,0-0.3,0.1-0.3,0.2v1.3
	c0,0.1,0.1,0.2,0.3,0.2H544.7z"/>
<path class="st1" d="M544.7,510.1c0.1,0,0.3-0.1,0.3-0.2v-1.3c0-0.1-0.1-0.2-0.3-0.2h-1.6c-0.1,0-0.3,0.1-0.3,0.2v1.3
	c0,0.1,0.1,0.2,0.3,0.2H544.7z"/>
<rect x="523.9" y="482.9" class="st2" width="46.6" height="2.1"/>
<rect x="523.9" y="482.9" class="st4" width="46.6" height="2.1"/>
<rect x="549.5" y="511.2" class="st2" width="21" height="2.1"/>
<rect x="549.5" y="511.2" class="st4" width="21" height="2.1"/>
<path class="st3" d="M565.7,497H563c-0.5,0-0.8-0.4-0.8-0.8c0-0.4,0.4-0.8,0.8-0.8h2.6c0.5,0,0.8,0.4,0.8,0.8
	C566.5,496.7,566.1,497,565.7,497 M558.5,497h-2.6c-0.5,0-0.8-0.4-0.8-0.8c0-0.4,0.4-0.8,0.8-0.8h2.6c0.5,0,0.8,0.4,0.8,0.8
	C559.4,496.7,559,497,558.5,497 M568.5,490.5h-15.5c-0.4,0-0.8,0.3-0.8,0.8v15.6c0,0.4,0.4,0.8,0.8,0.8h15.5c0.4,0,0.8-0.3,0.8-0.8
	v-15.6C569.3,490.8,569,490.5,568.5,490.5"/>
<path class="st1" d="M565.7,497H563c-0.5,0-0.8-0.4-0.8-0.8c0-0.4,0.4-0.8,0.8-0.8h2.6c0.5,0,0.8,0.4,0.8,0.8
	C566.5,496.7,566.1,497,565.7,497z M558.5,497h-2.6c-0.5,0-0.8-0.4-0.8-0.8c0-0.4,0.4-0.8,0.8-0.8h2.6c0.5,0,0.8,0.4,0.8,0.8
	C559.4,496.7,559,497,558.5,497z M568.5,490.5h-15.5c-0.4,0-0.8,0.3-0.8,0.8v15.6c0,0.4,0.4,0.8,0.8,0.8h15.5c0.4,0,0.8-0.3,0.8-0.8
	v-15.6C569.3,490.8,569,490.5,568.5,490.5z"/>
<path class="st0" d="M433.8,509.8c1.4,0,2.6,1.1,2.6,2.5c0,1.4-1.2,2.5-2.6,2.5c-1.4,0-2.6-1.1-2.6-2.5
	C431.2,510.9,432.4,509.8,433.8,509.8 M435.2,491.8H447c0.4,0,0.4,0.2,0.5,0.7l2.1,11.2v2.6H444l-1.4-2.2l-7.7,0l0-11.8
	C434.9,492,435,491.8,435.2,491.8 M453,512.3c0,1.4-1.2,2.5-2.6,2.5s-2.6-1.1-2.6-2.5c0-1.4,1.2-2.5,2.6-2.5S453,510.9,453,512.3
	 M433.8,516.7c2.3,0,4.2-1.6,4.5-3.8h7.6c0.3,2.1,2.2,3.7,4.5,3.8c2.1,0,3.5-1.1,4.3-3.1l0.3-0.1l-0.1-11.7h-3.7l-1.8-9.7
	c-0.2-1.3-1.2-2.2-2.3-2.2h-11.9c-1.3,0-2.4,1.1-2.4,2.4v9.6h-0.9c-2.7,0-3.7,1.8-3.7,2.9v6.4c0,0.7,0.4,1.3,1,1.6
	C429.5,515,431.4,516.7,433.8,516.7"/>
<path class="st1" d="M433.8,509.8c1.4,0,2.6,1.1,2.6,2.5c0,1.4-1.2,2.5-2.6,2.5c-1.4,0-2.6-1.1-2.6-2.5
	C431.2,510.9,432.4,509.8,433.8,509.8z M435.2,491.8H447c0.4,0,0.4,0.2,0.5,0.7l2.1,11.2v2.6H444l-1.4-2.2l-7.7,0l0-11.8
	C434.9,492,435,491.8,435.2,491.8z M453,512.3c0,1.4-1.2,2.5-2.6,2.5s-2.6-1.1-2.6-2.5c0-1.4,1.2-2.5,2.6-2.5S453,510.9,453,512.3z
	 M433.8,516.7c2.3,0,4.2-1.6,4.5-3.8h7.6c0.3,2.1,2.2,3.7,4.5,3.8c2.1,0,3.5-1.1,4.3-3.1l0.3-0.1l-0.1-11.7h-3.7l-1.8-9.7
	c-0.2-1.3-1.2-2.2-2.3-2.2h-11.9c-1.3,0-2.4,1.1-2.4,2.4v9.6h-0.9c-2.7,0-3.7,1.8-3.7,2.9v6.4c0,0.7,0.4,1.3,1,1.6
	C429.5,515,431.4,516.7,433.8,516.7z"/>
<polygon class="st3" points="459.2,510.9 472.6,510.9 472.6,499.8 467.7,499.8 467.7,502.7 467.2,502.5 466.5,502.8 465.9,502.5 
	465.3,502.8 464.6,502.5 464.1,502.8 464.1,499.8 459.2,499.8 "/>
<polygon class="st1" points="459.2,510.9 472.6,510.9 472.6,499.8 467.7,499.8 467.7,502.7 467.2,502.5 466.5,502.8 465.9,502.5 
	465.3,502.8 464.6,502.5 464.1,502.8 464.1,499.8 459.2,499.8 "/>
<line class="st1" x1="460.4" y1="499.5" x2="471.6" y2="499.5"/>
<path class="st2" d="M454.3,513.6c0,0.6,0.5,1.1,1.1,1.1H471c0.6,0,1.1-0.5,1.1-1.1s-0.5-1.1-1.1-1.1h-14.4v-25.9c0-0.2-0.2-1-1.1-1
	c-1.1,0-1.1,1-1.1,1V513.6z"/>
<path class="st4" d="M454.3,513.6c0,0.6,0.5,1.1,1.1,1.1H471c0.6,0,1.1-0.5,1.1-1.1c0-0.6-0.5-1.1-1.1-1.1h-14.4v-25.9
	c0-0.2-0.2-1-1.1-1c-1.1,0-1.1,1-1.1,1V513.6z"/>
<line class="st4" x1="505.1" y1="506.1" x2="496.1" y2="506.1"/>
<path class="st5" d="M503.6,505.9c0,0.9,0.8,1.7,1.7,1.7s1.7-0.8,1.7-1.7s-0.8-1.7-1.7-1.7S503.6,505,503.6,505.9"/>
<ellipse class="st4" cx="505.4" cy="505.9" rx="1.7" ry="1.7"/>
<path class="st4" d="M488.4,499.6h8.9 M495,505.9h-1.2 M492,505.9h-1.2"/>
<path class="st5" d="M489.9,499.6c0-0.9-0.8-1.7-1.7-1.7c-1,0-1.7,0.8-1.7,1.7s0.8,1.7,1.7,1.7C489.1,501.2,489.9,500.5,489.9,499.6
	"/>
<ellipse class="st4" cx="488.1" cy="499.6" rx="1.7" ry="1.7"/>
<path class="st4" d="M498.5,499.3h1.2 M501.5,499.3h1.2"/>
</svg>
