<?xml version="1.0" encoding="utf-8"?>
<!-- Generator: Adobe Illustrator 21.0.0, SVG Export Plug-In . SVG Version: 6.00 Build 0)  -->
<svg version="1.1" id="Layer_1" xmlns="http://www.w3.org/2000/svg" xmlns:xlink="http://www.w3.org/1999/xlink" x="0px" y="0px"
	 viewBox="0 0 186.2 56.2" style="enable-background:new 0 0 186.2 56.2;" xml:space="preserve">
<style type="text/css">
	.st0{fill:#538ECB;}
	.st1{fill:url(#SVGID_1_);}
	.st2{fill:url(#SVGID_2_);}
	.st3{fill:#FFFFFF;}
</style>
<ellipse class="st0" cx="111.9" cy="28.9" rx="26.8" ry="26"/>
<radialGradient id="SVGID_1_" cx="119.6459" cy="29.9792" r="16.6875" gradientUnits="userSpaceOnUse">
	<stop  offset="0" style="stop-color:#2B79B3"/>
	<stop  offset="0.4271" style="stop-color:#2977B1"/>
	<stop  offset="0.6581" style="stop-color:#2170AC"/>
	<stop  offset="0.8418" style="stop-color:#1365A3"/>
	<stop  offset="1" style="stop-color:#005597"/>
</radialGradient>
<circle class="st1" cx="119.6" cy="30" r="16.7"/>
<radialGradient id="SVGID_2_" cx="119.6344" cy="30.0322" r="15.0732" gradientUnits="userSpaceOnUse">
	<stop  offset="0" style="stop-color:#2B79B3"/>
	<stop  offset="0.4271" style="stop-color:#2977B1"/>
	<stop  offset="0.6581" style="stop-color:#2170AC"/>
	<stop  offset="0.8418" style="stop-color:#1365A3"/>
	<stop  offset="1" style="stop-color:#005597"/>
</radialGradient>
<circle class="st2" cx="119.6" cy="30" r="15.1"/>
<path class="st0" d="M6.3,46.3H3.3l6.8-32.7h4l6.8,32.7h-3.1L16,37.8H8.1L6.3,46.3z M8.5,35.8h7.2L12,16.6L8.5,35.8z"/>
<path class="st0" d="M31.1,46.3V15.9h-6.7v-2.3h16.5v2.3h-6.8v30.4H31.1z"/>
<path class="st0" d="M46.6,36.8V23.1c0-1.2,0.1-2.2,0.3-3.2c0.2-1,0.5-1.9,0.9-2.7c0.4-0.9,1-1.6,1.6-2.2c0.7-0.6,1.5-1.1,2.5-1.4
	c1-0.3,2.2-0.5,3.5-0.5c1.3,0,2.5,0.2,3.5,0.5c1,0.3,1.8,0.8,2.5,1.4c0.7,0.6,1.2,1.3,1.6,2.2c0.4,0.9,0.7,1.8,0.9,2.7
	c0.2,1,0.3,2,0.3,3.2v13.7c0,6.7-2.9,10-8.8,10C49.5,46.8,46.6,43.5,46.6,36.8z M61.1,37.4v-15c0-4.7-1.9-7-5.7-7
	c-3.8,0-5.7,2.3-5.7,7v15c0,4.7,1.9,7,5.7,7C59.2,44.5,61.1,42.1,61.1,37.4z"/>
<path class="st0" d="M73.5,46.3V13.6h3V44h9.6v2.3H73.5z"/>
<path class="st3" d="M92.1,46.3V13.6h3V44h9.6v2.3H92.1z"/>
<path class="st0" d="M141.6,37.1V23.3c0-6.8,3-10.2,9.1-10.2c1,0,1.8,0.1,2.6,0.3c0.8,0.2,1.4,0.5,2,0.8c0.5,0.3,1,0.8,1.4,1.3
	c0.4,0.5,0.7,1.1,1,1.7s0.4,1.3,0.6,2c0.1,0.8,0.2,1.5,0.3,2.3c0.1,0.7,0.1,1.5,0.1,2.4v0.2h-3V24c0,0,0-0.1,0-0.2
	c0-0.9,0-1.6,0-2.1c0-0.5-0.1-1.1-0.1-1.9c-0.1-0.8-0.2-1.4-0.4-1.8c-0.2-0.4-0.5-0.8-0.8-1.3c-0.3-0.5-0.8-0.8-1.4-1
	c-0.6-0.2-1.3-0.3-2.1-0.3c-1.1,0-2.1,0.2-2.9,0.5s-1.4,0.9-1.9,1.5c-0.4,0.6-0.8,1.3-1,2.1s-0.3,1.6-0.3,2.5v16.4
	c0,0.8,0.1,1.6,0.2,2.3c0.2,0.7,0.4,1.3,0.8,1.9c0.4,0.6,1,1.1,1.8,1.4c0.8,0.3,1.8,0.5,2.9,0.5c1.1,0,2-0.2,2.7-0.5
	c0.7-0.4,1.3-0.8,1.7-1.5c0.4-0.6,0.6-1.3,0.8-1.9c0.2-0.7,0.2-1.4,0.2-2.2v-5.5h-4.2v-2.2h7.3v15.6h-1.3l-0.9-3.2
	c-0.5,1.1-1.3,2-2.4,2.7s-2.4,1-3.8,1c-0.9,0-1.8-0.1-2.5-0.2c-0.8-0.2-1.4-0.4-2-0.6c-0.6-0.3-1.1-0.6-1.5-1
	c-0.4-0.4-0.8-0.8-1.1-1.2c-0.3-0.4-0.5-0.8-0.8-1.4c-0.2-0.5-0.4-1-0.5-1.4c-0.1-0.4-0.2-0.9-0.2-1.4c-0.1-0.5-0.1-1-0.1-1.3
	C141.6,37.9,141.6,37.6,141.6,37.1z"/>
<path class="st0" d="M172.7,46.3V36.1l-7.5-22.6h3.1c0.3,0.9,0.7,2.2,1.2,3.9c0.5,1.7,1,3.3,1.6,5.1c0.5,1.7,1.1,3.4,1.6,4.9
	c0.5,1.6,0.9,2.9,1.2,3.9l0.5,1.5c0.9-3,1.8-6.3,3-9.9s2.1-6.7,2.8-9.4h3l-7.3,22.6v10.2H172.7z"/>
<path class="st3" d="M119.6,13.2c-9.3,0-16.9,7.5-16.9,16.8s7.6,16.8,16.9,16.8s16.9-7.5,16.9-16.8S129,13.2,119.6,13.2z
	 M119.6,43.7c-7.7,0-13.9-6.2-13.9-13.8c0-7.6,6.2-13.8,13.9-13.8s13.9,6.2,13.9,13.8C133.5,37.6,127.3,43.7,119.6,43.7z"/>
</svg>
