<?xml version="1.0" encoding="UTF-8"?>
<!-- Generator: Adobe Illustrator 23.0.5, SVG Export Plug-In . SVG Version: 6.00 Build 0)  -->
<svg version="1.1" id="Layer_1" xmlns="http://www.w3.org/2000/svg" xmlns:xlink="http://www.w3.org/1999/xlink" x="0px" y="0px" viewBox="0 0 20 20" style="enable-background:new 0 0 20 20;" xml:space="preserve"><link xmlns="" type="text/css" rel="stylesheet" id="dark-mode-custom-link"/><link xmlns="" type="text/css" rel="stylesheet" id="dark-mode-general-link"/><style xmlns="" lang="en" type="text/css" id="dark-mode-custom-style"/><style xmlns="" lang="en" type="text/css" id="dark-mode-native-style"/>
<style type="text/css">
	.st0{fill:#ffffff;}
</style>
<g>
	<path class="st0" d="M19.54,10.11c0,5.35-4.34,9.69-9.69,9.69s-9.69-4.34-9.69-9.69c0-5.35,4.34-9.69,9.69-9.69   S19.54,4.76,19.54,10.11z M2.04,10.11c0,4.32,3.49,7.81,7.81,7.81s7.81-3.5,7.81-7.81c0-4.32-3.49-7.81-7.81-7.81   C5.53,2.29,2.04,5.79,2.04,10.11z M15.33,8.05l-6.74,6.69c-0.18,0.18-0.48,0.18-0.66,0l-3.55-3.57c-0.18-0.18-0.18-0.48,0-0.66   l0.89-0.88c0.18-0.18,0.48-0.18,0.66,0l2.34,2.35l5.52-5.48c0.18-0.18,0.48-0.18,0.66,0l0.88,0.89   C15.51,7.57,15.51,7.86,15.33,8.05z"/>
</g>
</svg>