<?xml version="1.0" encoding="utf-8"?>
<!-- Generator: Adobe Illustrator 21.0.0, SVG Export Plug-In . SVG Version: 6.00 Build 0)  -->
<svg version="1.1" id="Layer_1" xmlns="http://www.w3.org/2000/svg" xmlns:xlink="http://www.w3.org/1999/xlink" x="0px" y="0px"
	 viewBox="0 0 881.9 203.1" style="enable-background:new 0 0 881.9 203.1;" xml:space="preserve">
<style type="text/css">
	.st0{fill:none;stroke:#FFD503;stroke-width:12;stroke-miterlimit:10;}
	.st1{fill:none;stroke:#FFD503;stroke-width:12;stroke-miterlimit:10;stroke-dasharray:12.1,12.1;}
	.st2{fill:#FFD503;stroke:#000000;stroke-width:1.8;stroke-miterlimit:10;}
	.st3{fill:#FFFFFF;stroke:#000000;stroke-width:2.4916;stroke-miterlimit:10;}
	.st4{fill:none;stroke:#000000;stroke-width:2.4916;stroke-miterlimit:10;}
	.st5{fill:none;stroke:#000000;stroke-width:1.2458;stroke-miterlimit:10;}
	.st6{fill:#FFFFFF;stroke:#000000;stroke-width:1.2458;stroke-miterlimit:10;}
	.st7{fill:#FFFFFF;stroke:#000000;stroke-width:2.5;stroke-miterlimit:10;}
	.st8{fill:none;stroke:#000000;stroke-width:2.5;stroke-miterlimit:10;}
	.st9{fill:#FFFFFF;stroke:#000000;stroke-width:2;stroke-miterlimit:10;}
	.st10{fill:#FFFFFF;stroke:#000000;stroke-width:2;stroke-linecap:round;stroke-linejoin:round;stroke-miterlimit:10;}
	.st11{stroke:#000000;stroke-width:1.6727;stroke-miterlimit:10;}
	.st12{fill:#FFFFFF;stroke:#000000;stroke-width:1.6727;stroke-miterlimit:10;}
	.st13{fill:none;stroke:#000000;stroke-width:1.6727;stroke-miterlimit:10;}
	.st14{fill:#FFFFFF;}
	.st15{fill:#FFFFFF;stroke:#000000;stroke-width:1.9173;}
	.st16{fill:#FFFFFF;stroke:#000000;stroke-width:2.0412;stroke-miterlimit:10;}
	.st17{fill:#FFFFFF;stroke:#000000;stroke-width:1.0206;stroke-miterlimit:10;}
</style>
<g>
	<g>
		<path class="st0" d="M844.4,118.6c0,0-1.2,1.8-3.4,4.9"/>
		<path class="st1" d="M833.6,133.1c-30.3,37.9-118.8,127.2-192.5-14.6c-90.4-174-161.6-67.5-199.8,0s-138.7,136.5-210,0
			C162.1-13.9,112.9-3.7,43.8,106.8"/>
		<path class="st0" d="M40.6,111.9c-1,1.7-2.1,3.4-3.1,5.1"/>
	</g>
</g>
<g>
	<path class="st2" d="M563,21.8c2.9,0.6,5.3,2.1,7.3,4.4c1.9,2.3,2.9,5,2.9,8.1c0,2.3-0.6,4.5-1.7,6.4c-1.1,2-2.7,3.5-4.6,4.6
		c-2,1.1-4.1,1.7-6.4,1.7h-36.6c-2.6,0-5-0.6-7.2-1.9c-2.2-1.3-3.9-3-5.2-5.2s-1.9-4.6-1.9-7.2c0-3.1,0.9-5.8,2.7-8.3
		s4.1-4.2,6.9-5.2v-0.8c0-2.9,0.7-5.5,2.1-8c1.4-2.5,3.4-4.4,5.8-5.8c2.5-1.4,5.1-2.1,8-2.1s5.6,0.7,8,2.2c2.5,1.5,4.4,3.4,5.8,5.8
		c1.6-1.1,3.4-1.6,5.3-1.6c2.7,0,4.9,0.9,6.8,2.8c1.9,1.9,2.8,4.1,2.8,6.8C563.6,19.5,563.4,20.7,563,21.8z"/>
</g>
<g>
	<path class="st3" d="M473.4,129.3h-76v1.2c0,4.4,3.5,5,7.9,5h60.2c4.4,0,7.9-0.6,7.9-5V129.3z"/>
	<path class="st3" d="M462.4,87.1c3.4,0,6,2.6,6,5.8v36.5h-64.8V92.9c0-3.3,2.1-5.8,5.5-5.8H462.4z"/>
	<polyline class="st4" points="408.6,125.5 408.6,91.9 463.5,91.9 463.5,125.5 	"/>
	<g>
		<path d="M421.4,100.3c0,3-1.1,4.7-3.1,4.7c-1.7,0-2.9-1.6-2.9-4.6s1.3-4.6,3.1-4.6C420.4,95.8,421.4,97.4,421.4,100.3z
			 M416.6,100.4c0,2.3,0.7,3.6,1.8,3.6c1.2,0,1.8-1.4,1.8-3.7c0-2.2-0.6-3.6-1.8-3.6C417.4,96.7,416.6,98,416.6,100.4z"/>
		<path d="M425.4,97.1L425.4,97.1l-1.6,0.8l-0.2-0.9l1.9-1h1v8.9h-1.2v-7.8H425.4z"/>
		<path d="M432.7,97.1L432.7,97.1l-1.6,0.8l-0.2-0.9l1.9-1h1v8.9h-1.2v-7.8H432.7z"/>
		<path d="M443.3,100.3c0,3-1.1,4.7-3.1,4.7c-1.7,0-2.9-1.6-2.9-4.6s1.3-4.6,3.1-4.6S443.3,97.4,443.3,100.3z M438.5,100.4
			c0,2.3,0.7,3.6,1.8,3.6c1.2,0,1.8-1.4,1.8-3.7c0-2.2-0.6-3.6-1.8-3.6C439.2,96.7,438.5,98,438.5,100.4z"/>
		<path d="M450.6,100.3c0,3-1.1,4.7-3.1,4.7c-1.7,0-2.9-1.6-2.9-4.6s1.3-4.6,3.1-4.6C449.5,95.8,450.6,97.4,450.6,100.3z
			 M445.8,100.4c0,2.3,0.7,3.6,1.8,3.6c1.2,0,1.8-1.4,1.8-3.7c0-2.2-0.6-3.6-1.8-3.6C446.5,96.7,445.8,98,445.8,100.4z"/>
		<path d="M454.6,97.1L454.6,97.1l-1.6,0.8l-0.2-0.9l1.9-1h1v8.9h-1.2v-7.8H454.6z"/>
		<path d="M418.1,107.3L418.1,107.3l-1.6,0.8l-0.2-0.9l1.9-1h1v8.9H418v-7.8H418.1z"/>
		<path d="M428.7,110.5c0,3-1.1,4.7-3.1,4.7c-1.7,0-2.9-1.6-2.9-4.6s1.3-4.6,3.1-4.6C427.7,106,428.7,107.7,428.7,110.5z
			 M423.9,110.7c0,2.3,0.7,3.6,1.8,3.6c1.2,0,1.8-1.4,1.8-3.7c0-2.2-0.6-3.6-1.8-3.6C424.7,107,423.9,108.2,423.9,110.7z"/>
		<path d="M432.7,107.3L432.7,107.3l-1.6,0.8l-0.2-0.9l1.9-1h1v8.9h-1.2v-7.8H432.7z"/>
		<path d="M443.3,110.5c0,3-1.1,4.7-3.1,4.7c-1.7,0-2.9-1.6-2.9-4.6s1.3-4.6,3.1-4.6S443.3,107.7,443.3,110.5z M438.5,110.7
			c0,2.3,0.7,3.6,1.8,3.6c1.2,0,1.8-1.4,1.8-3.7c0-2.2-0.6-3.6-1.8-3.6C439.2,107,438.5,108.2,438.5,110.7z"/>
		<path d="M447.3,107.3L447.3,107.3l-1.6,0.8l-0.2-0.9l1.9-1h1v8.9h-1.2v-7.8H447.3z"/>
		<path d="M457.9,110.5c0,3-1.1,4.7-3.1,4.7c-1.7,0-2.9-1.6-2.9-4.6s1.3-4.6,3.1-4.6C456.8,106,457.9,107.7,457.9,110.5z M453,110.7
			c0,2.3,0.7,3.6,1.8,3.6c1.2,0,1.8-1.4,1.8-3.7c0-2.2-0.6-3.6-1.8-3.6C453.8,107,453,108.2,453,110.7z"/>
		<path d="M421.4,120.8c0,3-1.1,4.7-3.1,4.7c-1.7,0-2.9-1.6-2.9-4.6s1.3-4.6,3.1-4.6C420.4,116.3,421.4,117.9,421.4,120.8z
			 M416.6,120.9c0,2.3,0.7,3.6,1.8,3.6c1.2,0,1.8-1.4,1.8-3.7c0-2.2-0.6-3.6-1.8-3.6C417.4,117.2,416.6,118.5,416.6,120.9z"/>
		<path d="M428.7,120.8c0,3-1.1,4.7-3.1,4.7c-1.7,0-2.9-1.6-2.9-4.6s1.3-4.6,3.1-4.6C427.7,116.3,428.7,117.9,428.7,120.8z
			 M423.9,120.9c0,2.3,0.7,3.6,1.8,3.6c1.2,0,1.8-1.4,1.8-3.7c0-2.2-0.6-3.6-1.8-3.6C424.7,117.2,423.9,118.5,423.9,120.9z"/>
		<path d="M436,120.8c0,3-1.1,4.7-3.1,4.7c-1.7,0-2.9-1.6-2.9-4.6s1.3-4.6,3.1-4.6C434.9,116.3,436,117.9,436,120.8z M431.2,120.9
			c0,2.3,0.7,3.6,1.8,3.6c1.2,0,1.8-1.4,1.8-3.7c0-2.2-0.6-3.6-1.8-3.6C432,117.2,431.2,118.5,431.2,120.9z"/>
		<path d="M440,117.6L440,117.6l-1.6,0.8l-0.2-0.9l1.9-1h1v8.9H440V117.6z"/>
		<path d="M447.3,117.6L447.3,117.6l-1.6,0.8l-0.2-0.9l1.9-1h1v8.9h-1.2v-7.8H447.3z"/>
		<path d="M457.9,120.8c0,3-1.1,4.7-3.1,4.7c-1.7,0-2.9-1.6-2.9-4.6s1.3-4.6,3.1-4.6C456.8,116.3,457.9,117.9,457.9,120.8z
			 M453,120.9c0,2.3,0.7,3.6,1.8,3.6c1.2,0,1.8-1.4,1.8-3.7c0-2.2-0.6-3.6-1.8-3.6C453.8,117.2,453,118.5,453,120.9z"/>
	</g>
</g>
<g>
	<g>
		<path class="st3" d="M671.6,125.9h-68.9c-1.9,0-3.5-1.6-3.5-3.5V86.7c0-1.9,1.6-3.5,3.5-3.5h68.9c1.9,0,3.5,1.6,3.5,3.5v35.7
			C675.1,124.3,673.5,125.9,671.6,125.9z"/>
		<path class="st4" d="M603.7,83.2L603.7,83.2c-2.4,0-4.4,2-4.4,4.4v42.3c0,2.4,2,4.4,4.4,4.4h67.1c2.4,0,4.4-2,4.4-4.4V87.5
			c0-2.4-2-4.4-4.4-4.4h-2.9"/>
		<polyline class="st4" points="621.2,147.3 624.1,144.4 651.8,144.4 654.7,147.3 		"/>
		<polyline class="st4" points="628.4,141.5 628.4,134.2 647.4,134.2 647.4,141.5 		"/>
		<line class="st4" x1="675.1" y1="125.4" x2="599.3" y2="125.4"/>
		<line class="st4" x1="602.9" y1="83.2" x2="668.5" y2="83.2"/>
		<path class="st5" d="M605.5,119.8"/>
		<path class="st5" d="M668.8,119.8"/>
	</g>
	<rect x="605.7" y="93.8" class="st6" width="62.9" height="19.9"/>
	<line class="st5" x1="613.5" y1="93.9" x2="613.5" y2="113.5"/>
	<line class="st5" x1="615.8" y1="93.9" x2="615.8" y2="113.5"/>
	<line class="st5" x1="616.7" y1="93.9" x2="616.7" y2="113.5"/>
	<line class="st5" x1="619.1" y1="93.9" x2="619.1" y2="113.5"/>
	<line class="st5" x1="625.8" y1="93.9" x2="625.8" y2="113.5"/>
	<line class="st5" x1="629" y1="93.9" x2="629" y2="113.5"/>
	<line class="st5" x1="631.4" y1="93.9" x2="631.4" y2="113.5"/>
	<line class="st5" x1="656.7" y1="93.9" x2="656.7" y2="113.5"/>
	<line class="st5" x1="660" y1="93.9" x2="660" y2="113.5"/>
	<line class="st5" x1="662.3" y1="93.9" x2="662.3" y2="113.5"/>
	<line class="st5" x1="652.5" y1="93.9" x2="652.5" y2="113.5"/>
	<line class="st5" x1="655.7" y1="93.9" x2="655.7" y2="113.5"/>
	<line class="st5" x1="658.1" y1="93.9" x2="658.1" y2="113.5"/>
	<line class="st5" x1="651.3" y1="93.9" x2="651.3" y2="113.5"/>
	<line class="st5" x1="654.6" y1="93.9" x2="654.6" y2="113.5"/>
	<line class="st5" x1="656.9" y1="93.9" x2="656.9" y2="113.5"/>
	<line class="st5" x1="641.5" y1="93.9" x2="641.5" y2="113.5"/>
	<line class="st5" x1="644.7" y1="93.9" x2="644.7" y2="113.5"/>
	<line class="st5" x1="647.1" y1="93.9" x2="647.1" y2="113.5"/>
	<line class="st5" x1="632.1" y1="93.9" x2="632.1" y2="113.5"/>
	<line class="st5" x1="635.4" y1="93.9" x2="635.4" y2="113.5"/>
	<line class="st5" x1="626.9" y1="93.9" x2="626.9" y2="113.5"/>
	<line class="st5" x1="642.6" y1="93.9" x2="642.6" y2="113.5"/>
	<line class="st5" x1="643.2" y1="93.9" x2="643.2" y2="113.5"/>
	<line class="st5" x1="639.6" y1="93.9" x2="639.6" y2="113.5"/>
	<line class="st5" x1="618" y1="93.9" x2="618" y2="113.5"/>
	<line class="st5" x1="608.4" y1="93.9" x2="608.4" y2="113.5"/>
	<line class="st5" x1="620.6" y1="93.9" x2="620.6" y2="113.5"/>
	<line class="st5" x1="621.2" y1="93.9" x2="621.2" y2="113.5"/>
	<line class="st5" x1="622.8" y1="93.9" x2="622.8" y2="113.5"/>
</g>
<g>
	<path d="M881.1,115.2l-19-8.5c-1-0.4-1.8-0.2-2.4,0.8l-7.7,12.1l1.2,3.7l8.6-13.5l16.4,7.3l-6.8,10.6c0.9,0.6,1.6,1.3,2.2,2.2
		l8.1-12.8C882.1,116.4,881.9,115.6,881.1,115.2z"/>
	<path class="st7" d="M817.2,116.3l-3.1,21.9h23.1l-8-16.2l3.6-1c2,4.2,5.2,10.8,7.1,14.6c1.4,2.8,3.5,4.4,6.3,4.4h19.4
		c3.8,0,5.9-1.8,5.9-5.2c0-2.8-1.4-4.3-3.4-5l-2.6-6.7c-0.4-1.1-1.7-1.7-2.8-1.2c-1.1,0.4-1.6,1.7-1.2,2.8l1.8,4.5l-12-1.2l-6.8-16
		c-2.8-6.9-7.7-9.8-13-9.8C824.2,102.3,818.7,106.6,817.2,116.3z"/>
	<circle class="st8" cx="842.4" cy="88.8" r="12.6"/>
	<g>
		<path class="st9" d="M827.2,86.2c0,0-0.9-12.3,11.2-14.6c12.2-2.3,15.2,7.2,16.3,9.8l6.4,1.3c0,0,1.8,0.9,0.5,1.7L827.9,90
			C827.8,90.1,824.6,88.5,827.2,86.2z"/>
		<path class="st10" d="M835.2,75.5c0,0,9.9-4.9,14.9,3.7"/>
	</g>
</g>
<g>
	<g>
		<path class="st11" d="M10.3,137.1c3.9,0,7.2-2.9,7.8-6.7h13c0.6,3.8,3.8,6.6,7.8,6.7c3.6,0.1,6-1.9,7.4-5.5l0.5-0.2l-0.1-20.7
			h-6.4l-3.1-17.2c-0.4-2.2-2-3.9-4-3.9H12.8c-2.2,0-4.1,1.9-4.1,4.2v16.9H7.1c-4.7,0-6.3,3.3-6.3,5.1v11.4c0,1.2,0.7,2.3,1.7,2.8
			C2.9,134,6.3,137.1,10.3,137.1z M43.4,129.2c0,2.4-2,4.4-4.4,4.4s-4.4-2-4.4-4.4c0-2.4,2-4.4,4.4-4.4
			C41.4,124.8,43.4,126.8,43.4,129.2z M12.8,93.1H33c0.6,0,0.7,0.4,0.9,1.2l3.6,19.8v4.6h-9.6l-2.5-4H12.2V93.9
			C12.2,93.5,12.4,93.1,12.8,93.1z M10.3,124.8c2.4,0,4.4,2,4.4,4.4s-2,4.4-4.4,4.4s-4.4-2-4.4-4.4C5.9,126.8,7.9,124.8,10.3,124.8z
			"/>
		<polygon class="st12" points="52.8,127.1 76.4,127.1 76.4,106.9 67.8,106.9 67.8,112.2 66.8,111.7 65.7,112.3 64.6,111.7 
			63.5,112.3 62.4,111.7 61.4,112.2 61.4,106.9 52.8,106.9 		"/>
		<line class="st13" x1="55.3" y1="106.8" x2="74.2" y2="106.8"/>
		<path d="M45,131.3c0,1,0.8,1.9,1.9,1.9h26.4c1,0,1.9-0.8,1.9-1.9c0-1-0.8-1.9-1.9-1.9H48.7V84.5c0-0.4-0.4-1.7-1.8-1.7
			c-1.9,0-1.9,1.7-1.9,1.7V131.3z"/>
	</g>
</g>
<g>
	<rect x="214.8" y="96.5" class="st14" width="41.1" height="36.6"/>
	<g>
		<path class="st15" d="M234.7,94.3h-39.5c-1,0-1.8,0.8-1.8,1.8v36.5h2.5V127c0-1.5,1.2-2.6,2.6-2.6h0.9v-19.8
			c0-0.5-0.2-2.4-1.1-2.5l0.4-2.7c2.7,0.4,3.4,3.5,3.4,5.2v2.5h2.4v-3.5c6.6-1.3,14.7-1.3,21.4,0.1v3.5h2.3v-2.6
			c0-1.7,0.6-4.8,3.4-5.2l0.4,2.7c-1,0.1-1.1,2.5-1.1,2.5v19.9h0.8c1.5,0,2.6,1.2,2.6,2.6v5.6h2.3V96.2
			C236.5,95.1,235.7,94.3,234.7,94.3z"/>
		<rect x="204.4" y="110.4" class="st16" width="21.3" height="6.5"/>
		<path d="M226.3,121.2c0-0.6-0.5-1.2-1.2-1.2h-20.2c-0.6,0-1.2,0.5-1.2,1.2v11.1h-8v11.9c0,0.7,0.5,1.2,1.2,1.2h4.5
			c0.7,0,1.2-0.5,1.2-1.2v-1.6h24.6v1.6c0,0.7,0.5,1.2,1.2,1.2h4.5c0.7,0,1.2-0.5,1.2-1.2v-11.9h-8v-11.1H226.3z M222.5,133.9h-14.9
			v-1.7h14.9V133.9z M222.5,129.4h-14.9v-1.7h14.9V129.4z M222.5,124.9h-14.9v-1.7h14.9V124.9z"/>
		<path class="st17" d="M201.6,132.2c0.3,0,0.5-0.2,0.5-0.5v-2.9c0-0.3-0.2-0.5-0.5-0.5h-3.3c-0.3,0-0.5,0.2-0.5,0.5v2.9
			c0,0.3,0.2,0.5,0.5,0.5H201.6z"/>
		<path class="st17" d="M231.7,132.2c0.3,0,0.5-0.2,0.5-0.5v-2.9c0-0.3-0.2-0.5-0.5-0.5h-3.3c-0.3,0-0.5,0.2-0.5,0.5v2.9
			c0,0.3,0.2,0.5,0.5,0.5H231.7z"/>
		<rect x="194.4" y="82.1" width="83" height="4.1"/>
		<rect x="239.9" y="133.7" width="37.5" height="4.1"/>
		<path d="M274.2,95.3h-28.5c-0.8,0-1.5,0.7-1.5,1.5v29.5c0,0.8,0.7,1.5,1.5,1.5h28.5c0.8,0,1.5-0.7,1.5-1.5V96.8
			C275.7,96,275,95.3,274.2,95.3z M255.8,107.8H251c-0.8,0-1.5-0.7-1.5-1.5s0.7-1.5,1.5-1.5h4.9c0.8,0,1.5,0.7,1.5,1.5
			C257.3,107.1,256.7,107.8,255.8,107.8z M269,107.8h-4.9c-0.8,0-1.5-0.7-1.5-1.5s0.7-1.5,1.5-1.5h4.9c0.8,0,1.5,0.7,1.5,1.5
			C270.5,107.1,269.8,107.8,269,107.8z"/>
	</g>
</g>
</svg>
