<?xml version="1.0" encoding="utf-8"?>
<!-- Generator: Adobe Illustrator 21.0.0, SVG Export Plug-In . SVG Version: 6.00 Build 0)  -->
<svg version="1.1" id="Layer_1" xmlns="http://www.w3.org/2000/svg" xmlns:xlink="http://www.w3.org/1999/xlink" x="0px" y="0px"
	 viewBox="0 0 559.8 249.2" style="enable-background:new 0 0 559.8 249.2;" xml:space="preserve">
<style type="text/css">
	.st0{fill:#FFFFFF;}
	.st1{fill:#005589;}
	.st2{fill:#231F20;}
</style>
<g>
	<rect x="163.4" y="202.8" class="st0" width="56.2" height="46.4"/>
	<polygon class="st1" points="164.8,227.4 164.8,246.3 164.8,249.2 167.5,249.2 167.5,246.3 174.3,246.3 174.3,249.2 176.9,249.2 
		176.9,246.3 183.7,246.3 183.7,249.2 186.4,249.2 186.4,246.3 186.4,227.4 	"/>
	<polygon class="st1" points="188.1,227.4 188.1,246.3 188.1,249.2 190.8,249.2 190.8,246.3 209.7,246.3 209.7,227.4 	"/>
	<rect x="197.6" y="246.3" class="st2" width="2.7" height="2.9"/>
	<rect x="207" y="246.3" class="st2" width="2.7" height="2.9"/>
	<rect x="211.4" y="227.4" class="st2" width="21.6" height="18.9"/>
	<rect x="211.4" y="246.3" class="st2" width="2.7" height="2.9"/>
	<rect x="220.9" y="246.3" class="st2" width="2.7" height="2.9"/>
	<rect x="230.3" y="246.3" class="st2" width="2.7" height="2.9"/>
	<polygon class="st1" points="164.8,204.3 164.8,223.2 164.8,226.1 167.5,226.1 167.5,223.2 174.3,223.2 174.3,226.1 176.9,226.1 
		176.9,223.2 183.7,223.2 183.7,226.1 186.4,226.1 186.4,223.2 186.4,204.3 	"/>
	<polygon class="st1" points="188.1,204.3 188.1,223.2 188.1,226.1 190.8,226.1 190.8,223.2 209.7,223.2 209.7,204.3 	"/>
	<rect x="197.6" y="223.2" class="st2" width="2.7" height="2.9"/>
	<rect x="207" y="223.2" class="st2" width="2.7" height="2.9"/>
	<rect x="211.4" y="204.3" class="st1" width="21.6" height="18.9"/>
	<rect x="211.4" y="223.2" class="st2" width="2.7" height="2.9"/>
	<rect x="220.9" y="223.2" class="st2" width="2.7" height="2.9"/>
	<rect x="230.3" y="223.2" class="st2" width="2.7" height="2.9"/>
	<rect x="193.7" y="215.6" class="st0" width="39.4" height="33.6"/>
	<rect x="195.6" y="217.7" class="st0" width="28.3" height="28.9"/>
	<rect x="223.8" y="217.7" class="st0" width="28.3" height="28.9"/>
	<rect x="252.1" y="217.7" class="st0" width="28.3" height="28.9"/>
	<path class="st1" d="M222.2,217.7h-25h-1.6v28.9v2.6h4.6v-2.6h7.2v2.6h4.6v-2.6h7.2v2.6h4.6v-2.6v-28.9H222.2z M222.2,221.8
		l-12.5,9.2l-12.5-9.2H222.2z M222.2,224v16.2l-11-8.1L222.2,224z M197.2,224l11,8.1l-11,8.1V224z M197.2,242.5l12.5-9.2l12.5,9.2
		H197.2z"/>
	<path class="st1" d="M250.5,217.7h-25h-1.6v28.9v2.6h4.6v-2.6h7.2v2.6h4.6v-2.6h7.2v2.6h4.6v-2.6v-28.9H250.5z M250.5,221.8
		L238,231l-12.5-9.2H250.5z M250.5,224v16.2l-11-8.1L250.5,224z M225.5,224l11,8.1l-11,8.1V224z M225.5,242.5l12.5-9.2l12.5,9.2
		H225.5z"/>
	<path class="st1" d="M278.7,217.7h-25h-1.6v28.9v2.6h4.6v-2.6h7.2v2.6h4.6v-2.6h7.2v2.6h4.6v-2.6v-28.9H278.7z M278.7,221.8
		l-12.5,9.2l-12.5-9.2H278.7z M278.7,224v16.2l-11-8.1L278.7,224z M253.7,224l11,8.1l-11,8.1V224z M253.7,242.5l12.5-9.2l12.5,9.2
		H253.7z"/>
	<g>
		<path class="st1" d="M52.2,217h14.8c2.2,0,4,7.2,4,16.1c0,8.9-1.8,16.1-4,16.1H52.2c-2.2,0-4-7.2-4-16.1
			C48.2,224.2,50,217,52.2,217z"/>
		<ellipse class="st0" cx="53" cy="233.1" rx="2.2" ry="8.9"/>
		<path class="st1" d="M13,224.1h9.9c1.7,0,3.1,5.6,3.1,12.5c0,6.9-1.4,12.5-3.1,12.5H13c-1.7,0-3.1-5.6-3.1-12.5
			C9.9,229.7,11.3,224.1,13,224.1z"/>
		<ellipse class="st0" cx="13.6" cy="236.6" rx="2.1" ry="8.6"/>
		<g>
			<path class="st1" d="M64.6,197.6L55,148.1c-0.9-5-3.7-9.1-8.2-9.1h51.6c4.5,0,7.3,4.1,8.2,9.1l9.3,49.5v9.1H64.6V197.6z"/>
			<path class="st0" d="M110.9,197.6l-9-48.4c-0.3-1.8-1.2-4.8-3.4-4.8H59.2c0.2,0.8,0.4,1.7,0.6,2.6l0-0.1l9.8,50.7H110.9z"/>
			<path class="st1" d="M22.6,197.6v-39.9c0-5,1.1-9.1,6.1-11.3l18.1-7.5c4.5,0,7.3,4.1,8.2,9.1l9.6,49.5v9.1H30.8
				C26.3,206.7,22.6,202.7,22.6,197.6z"/>
			<path class="st0" d="M30.8,201.3h28.8v-3.6l-9.4-48.3l0,0l0,0c-0.3-1.6-1-4.1-2.7-4.6l-17,7.1c-2.1,0.9-2.9,1.9-2.9,6.1v39.9
				C27.5,199.6,29,201.3,30.8,201.3L30.8,201.3z"/>
		</g>
		<g>
			<path class="st1" d="M118.4,231.4V217h9.5c2.2,0,4,7.2,4,16.1c0,8.9-1.8,16.1-4,16.1h-14.1c-1.3,0-2.5-2.5-3.2-6.4
				C115,241.4,118.4,236.8,118.4,231.4z"/>
		</g>
		<path class="st1" d="M55.1,192.7h-6.5v-16.9c0-2-1.5-3.6-3.3-3.6h-9.2c-1.8,0-3.3,1.6-3.3,3.6V194c0,2,1.5,3.6,3.3,3.6h9.2h9.8
			c1.2,0,2.2-1.1,2.2-2.4C57.3,193.8,56.4,192.7,55.1,192.7z"/>
		<path class="st1" d="M57,122.1c-0.5-0.2-1.1-0.2-1.6-0.3v0c-0.1,0-0.1,0-0.2,0c-0.1,0-0.3,0-0.4,0c-5.1,0.2-9.2,3.4-9.2,7.5
			c0,3.3,2.7,6.2,6.5,7.3v2.4h4.4V137c2.5-0.5,4.6-2.6,5.3-5.4C62.8,127.5,60.6,123.3,57,122.1z"/>
		<path class="st0" d="M55.3,134.6C55.3,134.6,55.3,134.6,55.3,134.6c-0.4,0-0.8-0.1-1.2-0.2c-1.2-0.4-2.1-1.2-2.7-2.4
			c-0.6-1.2-0.8-2.5-0.4-3.8c0.5-2.2,2.3-3.7,4.4-3.7c0.4,0,0.8,0.1,1.2,0.2c2.4,0.7,3.8,3.5,3.2,6.2
			C59.1,133.1,57.3,134.6,55.3,134.6L55.3,134.6z"/>
		<path class="st1" d="M55.7,128c-0.1,0-0.3-0.1-0.4-0.1c-0.7,0-1.2,0.5-1.4,1.2c-0.1,0.4-0.1,0.9,0.1,1.2c0.2,0.4,0.5,0.7,0.9,0.8
			c0.1,0,0.3,0.1,0.4,0.1c0,0,0,0,0,0c0.7,0,1.2-0.5,1.4-1.2C57,129.1,56.5,128.2,55.7,128z"/>
		<path class="st1" d="M118.9,206.7V52.6h-2V0h-4.4l-4.6,5.9v50.5L106,58v139.6H84.3V52.6h-2V0h-4.4l-4.6,5.9v50.5L71.5,58v139.6
			H22.6c-4.5,0-8.2,4.1-8.2,9.1v15.6h8.5c4.5,0,4.7,11.9,4.7,14.3c0,0.2,0,0.5,0,0.8h18.2c-0.1-2-0.2-3.6-0.2-4.4
			c0-3.1,0.3-18.8,6.4-18.8h14.8c6.1,0,6.4,15.7,6.4,18.8c0,1.2,0,4.2-0.4,7.4h34.7c4.5,0,8.2-4.1,8.2-9.1V212c0-0.1,0-0.2,0-0.2v-5
			H118.9z"/>
		<g>
			<rect x="99" y="143.8" class="st0" width="68.3" height="11.1"/>
			<rect x="99" y="70.2" class="st0" width="68.3" height="73.7"/>
			<g>
				<polygon class="st1" points="119.8,154.9 77.9,154.9 77.9,163.3 100.5,163.3 119.8,158 				"/>
				<polygon class="st1" points="167.3,154.9 99,154.9 99,163.3 148.1,163.3 167.3,158 				"/>
				<polygon class="st1" points="99,74 77.9,84.2 77.9,142.2 99,139.3 				"/>
				<polygon class="st1" points="77.9,145.2 77.9,154.9 99,154.9 99,143.8 				"/>
				<polygon class="st0" points="77.9,148.3 99,147.4 99,143.8 77.9,145.2 				"/>
				<polygon class="st0" points="95.6,154.9 99,154.9 99,147.4 95.6,147.5 				"/>
				<polygon class="st0" points="86.4,154.9 89.4,154.9 89.4,147.8 86.4,147.9 				"/>
				<polygon class="st0" points="77.9,154.9 80.3,154.9 80.3,148.2 77.9,148.3 				"/>
				<polygon class="st0" points="77.9,142.2 77.9,145.2 99,143.8 99,139.3 				"/>
				<polygon class="st1" points="163.8,70.2 99,70.2 77.9,82.1 77.9,84.2 99,74 102.3,74 163.8,74 163.8,74 163.8,134.6 
					135.4,106.7 163.8,78.8 163.8,74 133,104.3 102.3,74 102.3,78.8 130.6,106.7 102.3,134.6 102.3,139.3 133,109 163.8,139.3 
					102.3,139.3 99,139.3 99,143.8 99,154.9 110.6,154.9 110.6,148.2 128.4,148.2 128.4,154.9 139.5,154.9 139.5,148.2 157.4,148.2 
					157.4,154.9 167.3,154.9 167.3,143.8 167.3,70.2 				"/>
				<polygon class="st0" points="99,139.3 77.9,89 77.9,84.2 99,134.6 				"/>
				<polygon class="st0" points="77.9,142.2 99,78.8 99,74 77.9,137.4 				"/>
				<rect x="99" y="74" class="st1" width="3.2" height="65.3"/>
			</g>
		</g>
	</g>
	<g>
		<g>
			<rect x="258.4" y="51.7" class="st1" width="8.4" height="142.3"/>
			<g>
				<g>
					<path class="st1" d="M553.7,184.9c-1-3.8-2.7-8.4-4.7-10.6c-4.7-5.4-10.5-6.8-10.9-7c1.2,0.4,1.7,1.8,1.7,3V183h0l0,34.9h3.8
						c1.3,0,2,8.6,2,16.2c0,1.3,0,3.2-0.1,4.2h8.8c1.4,0,1.4-6.2,1.4-10.3v-24.5C555.8,198.5,555.1,190.1,553.7,184.9z"/>
					<path class="st1" d="M539.9,170.3c0-1.2-0.6-2.6-1.7-3c-0.8-0.3-1.9-0.2-3.1-0.2h-34.8c-2.7,0-3.2,1-3.2,3.2v11.6l0,36h42.8
						l0-36h0V170.3z"/>
				</g>
				<g>
					<path class="st0" d="M554.6,203.5c0-5.1-0.7-13.1-2-17.9c-1.2-4.5-2.8-8.2-4.3-9.8c-2.4-2.7-6.3-4.6-8.4-5.6l0,12.9l0,33.1h3.8
						c1.3,0,1.9,1.8,2.4,4l8.5,0.4V203.5z"/>
					<path class="st0" d="M546.4,222.8c0.3,3,0.5,7.1,0.5,11.2c0,0.6,0,1.4,0,2.1l7.1,0c0.5-1.1,0.5-6.1,0.5-8.2v-6l-8.3-0.4
						C546.4,222,546.4,222.4,546.4,222.8z"/>
					<path class="st1" d="M546.1,220.1c0.1,0.5,0.2,1,0.2,1.5l8.3,0.4v-1.6L546.1,220.1z"/>
				</g>
				<path class="st1" d="M548,182.9l2.1,0.8c0.7,0.3,1.2,1.1,1.4,1.8c0.9,3.5,1.9,11,1.9,16.1c0,0-5.4-2.9-5.4-7.4
					C548,191.2,548,182.9,548,182.9z"/>
				<polygon class="st1" points="553,223.5 553.8,223.5 553.8,228.3 553,228.3 				"/>
				<g>
					<path class="st0" d="M534.9,175.8h-2.3v6.1h2.3c0.7,0,1.2-0.8,1.2-1.8v-2.6C536.2,176.6,535.6,175.8,534.9,175.8z"/>
				</g>
			</g>
			<g>
				<g>
					<polygon class="st1" points="537.7,234.1 491,234.1 491,226.8 537.7,230.1 					"/>
					<path class="st1" d="M498.7,220.9h-6.1c-1.3,0-2.3,6.3-2.3,14.1c0,7.8,1,14.1,2.3,14.1h6.1c1.3,0,2.3-6.3,2.3-14.1
						C501,227.2,499.9,220.9,498.7,220.9z"/>
					<path class="st1" d="M516.8,221.6H511c-1.2,0-2.2,6.2-2.2,13.8c0,7.6,1,13.8,2.2,13.8h5.8c1.2,0,2.2-6.2,2.2-13.8
						C519,227.8,518,221.6,516.8,221.6z"/>
					<path class="st0" d="M517.6,235.4c0,5.2-0.7,9.5-1.5,9.5c-0.8,0-1.5-4.3-1.5-9.5c0-5.2,0.7-9.5,1.5-9.5
						C516.9,225.9,517.6,230.1,517.6,235.4z"/>
					<path class="st1" d="M542.4,224h-6.9c-1.1,0-2,5.6-2,12.6c0,6.9,0.9,12.6,2,12.6h6.9c1.1,0,2-5.6,2-12.6
						C544.4,229.6,543.5,224,542.4,224z"/>
					<ellipse class="st0" cx="541.7" cy="236.6" rx="1.4" ry="8.7"/>
					<path class="st1" d="M508.8,220.9h-6.1c-1.3,0-2.3,6.3-2.3,14.1c0,7.8,1,14.1,2.3,14.1h6.1c1.3,0,2.3-6.3,2.3-14.1
						C511.1,227.2,510,220.9,508.8,220.9z"/>
					<path class="st1" d="M463,220.9h-6.1c-1.3,0-2.3,6.3-2.3,14.1c0,7.8,1,14.1,2.3,14.1h6.1c1.3,0,2.3-6.3,2.3-14.1
						C465.3,227.2,464.2,220.9,463,220.9z"/>
					<path class="st1" d="M481.1,221.6h-5.8c-1.2,0-2.2,6.2-2.2,13.8c0,7.6,1,13.8,2.2,13.8h5.8c1.2,0,2.2-6.2,2.2-13.8
						C483.3,227.8,482.3,221.6,481.1,221.6z"/>
					<path class="st1" d="M473.1,220.9H467c-1.3,0-2.3,6.3-2.3,14.1c0,7.8,1,14.1,2.3,14.1h6.1c1.3,0,2.3-6.3,2.3-14.1
						C475.4,227.2,474.4,220.9,473.1,220.9z"/>
					<ellipse class="st0" cx="508" cy="235" rx="1.6" ry="9.8"/>
					<rect x="476.2" y="226.8" class="st1" width="14.8" height="7.2"/>
					<polygon class="st1" points="371.8,233.3 442.3,233.3 442.3,224.2 371.8,221.3 					"/>
				</g>
			</g>
			<polygon class="st1" points="268.8,191.3 380.3,191.3 532.7,210.7 479.6,210.7 			"/>
			<rect x="268.8" y="51.7" class="st1" width="111.5" height="139.5"/>
			<rect x="271.9" y="55.8" class="st0" width="105.3" height="135.4"/>
			<rect x="260.2" y="54.5" class="st0" width="2.5" height="136.7"/>
			<polygon class="st1" points="532.7,210.7 380.3,191.3 380.3,51.7 532.7,149.2 			"/>
			<path class="st1" d="M418.1,211h-8.9c-1.9,0-3.4,8.5-3.4,19.1c0,10.5,1.5,19.1,3.4,19.1h8.9c1.9,0,3.4-8.6,3.4-19.1
				C421.5,219.5,420,211,418.1,211z"/>
			<path class="st0" d="M419.3,230.1c0,7.3-1.1,13.2-2.4,13.2c-1.3,0-2.3-5.9-2.3-13.2c0-7.3,1.1-13.2,2.3-13.2
				C418.3,216.9,419.3,222.8,419.3,230.1z"/>
			<path class="st1" d="M431.9,212.9h-8.4c-1.8,0-3.2,8.1-3.2,18.1c0,10,1.4,18.2,3.2,18.2h8.4c1.8,0,3.2-8.1,3.2-18.2
				C435.1,221,433.7,212.9,431.9,212.9z"/>
			<path class="st0" d="M433,231c0,6.9-1,12.5-2.2,12.5c-1.2,0-2.2-5.6-2.2-12.5c0-6.9,1-12.5,2.2-12.5C432,218.5,433,224.1,433,231
				z"/>
			<path class="st1" d="M389.9,209.1h-9.2c-2,0-3.5,9-3.5,20.1c0,11.1,1.6,20.1,3.5,20.1h9.2c2,0,3.6-9,3.6-20.1
				C393.5,218,391.9,209.1,389.9,209.1z"/>
			<path class="st1" d="M404,209.1h-9.2c-2,0-3.6,9-3.6,20.1c0,11.1,1.6,20.1,3.6,20.1h9.2c2,0,3.6-9,3.6-20.1
				C407.6,218,406,209.1,404,209.1z"/>
			<path class="st1" d="M330.1,211h-8.9c-1.9,0-3.4,8.5-3.4,19.1c0,10.5,1.5,19.1,3.4,19.1h8.9c1.9,0,3.4-8.6,3.4-19.1
				C333.5,219.5,332,211,330.1,211z"/>
			<path class="st1" d="M343.9,212.9h-8.4c-1.8,0-3.2,8.1-3.2,18.1c0,10,1.4,18.2,3.2,18.2h8.4c1.8,0,3.2-8.1,3.2-18.2
				C347.1,221,345.6,212.9,343.9,212.9z"/>
			<path class="st1" d="M301.9,209.1h-9.2c-2,0-3.6,9-3.6,20.1c0,11.1,1.6,20.1,3.6,20.1h9.2c2,0,3.6-9,3.6-20.1
				C305.5,218,303.9,209.1,301.9,209.1z"/>
			<path class="st1" d="M316,209.1h-9.2c-2,0-3.6,9-3.6,20.1c0,11.1,1.6,20.1,3.6,20.1h9.2c2,0,3.5-9,3.5-20.1
				C319.5,218,317.9,209.1,316,209.1z"/>
			<path class="st0" d="M405.3,229.1c0,7.6-1.1,13.8-2.5,13.8c-1.4,0-2.4-6.2-2.4-13.8c0-7.7,1.1-13.9,2.4-13.9
				C404.2,215.3,405.3,221.5,405.3,229.1z"/>
			<rect x="268.8" y="191.3" class="st1" width="111.5" height="42"/>
			<rect x="272.2" y="194.1" class="st0" width="104.8" height="29.1"/>
			<path class="st1" d="M355.3,214.5c0-0.7,0.6-1.3,1.3-1.3h14c0.7,0,1.3,0.6,1.3,1.3v1.8c0,0.7-0.6,1.3-1.3,1.3h-14
				c-0.7,0-1.3-0.6-1.3-1.3V214.5z"/>
			<path class="st1" d="M277.4,214.5c0-0.7,0.6-1.3,1.3-1.3h13.3c0.7,0,1.3,0.6,1.3,1.3v1.8c0,0.7-0.6,1.3-1.3,1.3h-13.3
				c-0.7,0-1.3-0.6-1.3-1.3V214.5z"/>
			<path class="st1" d="M307.9,214.5c0-0.7,0.6-1.3,1.3-1.3h27.2c0.7,0,1.3,0.6,1.3,1.3v4.8c0,0.7-0.6,1.3-1.3,1.3h-27.2
				c-0.7,0-1.3-0.6-1.3-1.3V214.5z"/>
			<polygon class="st0" points="529.5,207.4 383.4,184.3 383.4,170.3 529.5,199.7 			"/>
			<polygon class="st0" points="529.5,196.5 383.4,163.4 383.4,155.8 529.5,193.4 			"/>
			<polygon class="st1" points="415.5,195.2 385.1,191.3 385.1,51.7 415.5,71.1 			"/>
			<polygon class="st0" points="415.5,195.2 385.1,191.3 385.1,55.8 415.5,74.4 			"/>
			<polygon class="st1" points="414.4,191.1 385.1,186.8 385.1,60.2 414.4,77.3 			"/>
			<polygon class="st1" points="268.8,194.1 266.8,194.1 266.8,51.7 268.8,53.9 			"/>
			<rect x="380.3" y="51.7" class="st0" width="4.8" height="139.5"/>
			<rect x="380.3" y="51.7" class="st1" width="4.8" height="4.1"/>
			<polygon class="st1" points="377.2,92.2 271.9,59.6 377.2,59.6 			"/>
			<rect x="271.9" y="55.8" class="st0" width="105.3" height="3.8"/>
		</g>
		<g>
			<rect x="343" y="151.6" class="st0" width="34.3" height="32.6"/>
			<rect x="375.3" y="151.6" class="st1" width="2" height="32.6"/>
			<rect x="343" y="151.6" class="st1" width="2" height="32.6"/>
			<rect x="344.9" y="181.9" class="st1" width="30.3" height="2.3"/>
			<rect x="344.9" y="151.6" class="st1" width="30.3" height="2.3"/>
			<rect x="357.9" y="186.8" class="st1" width="4.4" height="4.5"/>
			<rect x="372.9" y="186.8" class="st1" width="4.4" height="4.5"/>
			<rect x="343" y="186.8" class="st1" width="4.4" height="4.5"/>
			<polygon class="st1" points="344.9,153.9 375.3,179.5 375.3,181.9 344.9,156.2 			"/>
			<polygon class="st1" points="375.3,153.9 344.9,179.5 344.9,181.9 375.3,156.2 			"/>
			<rect x="343" y="184.2" class="st1" width="34.3" height="2.6"/>
		</g>
		<g>
			<rect x="343" y="111.9" class="st0" width="34.3" height="32.6"/>
			<rect x="375.3" y="111.9" class="st1" width="2" height="32.6"/>
			<rect x="343" y="111.9" class="st1" width="2" height="32.6"/>
			<rect x="344.9" y="142.2" class="st1" width="30.3" height="2.3"/>
			<rect x="344.9" y="111.9" class="st1" width="30.3" height="2.3"/>
			<rect x="357.9" y="147.1" class="st1" width="4.4" height="4.5"/>
			<rect x="372.9" y="147.1" class="st1" width="4.4" height="4.5"/>
			<rect x="343" y="147.1" class="st1" width="4.4" height="4.5"/>
			<polygon class="st1" points="344.9,114.2 375.3,139.9 375.3,142.2 344.9,116.5 			"/>
			<polygon class="st1" points="375.3,114.2 344.9,139.9 344.9,142.2 375.3,116.5 			"/>
			<rect x="343" y="144.5" class="st1" width="34.3" height="2.6"/>
		</g>
		<g>
			<rect x="343" y="72.2" class="st0" width="34.3" height="32.6"/>
			<rect x="375.3" y="72.2" class="st1" width="2" height="32.6"/>
			<rect x="343" y="72.2" class="st1" width="2" height="32.6"/>
			<rect x="344.9" y="102.5" class="st1" width="30.3" height="2.3"/>
			<rect x="344.9" y="72.2" class="st1" width="30.3" height="2.3"/>
			<rect x="357.9" y="107.4" class="st1" width="4.4" height="4.5"/>
			<rect x="372.9" y="107.4" class="st1" width="4.4" height="4.5"/>
			<rect x="343" y="107.4" class="st1" width="4.4" height="4.5"/>
			<polygon class="st1" points="344.9,74.5 375.3,100.2 375.3,102.5 344.9,76.9 			"/>
			<polygon class="st1" points="375.3,74.5 344.9,100.2 344.9,102.5 375.3,76.9 			"/>
			<rect x="343" y="104.8" class="st1" width="34.3" height="2.6"/>
		</g>
		<g>
			<g>
				<rect x="306.3" y="151.6" class="st1" width="34.3" height="35.2"/>
				<rect x="306.3" y="186.8" class="st1" width="4.3" height="4.5"/>
				<rect x="321.3" y="186.8" class="st1" width="4.3" height="4.5"/>
				<rect x="336.3" y="186.8" class="st1" width="4.3" height="4.5"/>
			</g>
			<rect x="308" y="181.9" class="st0" width="30.8" height="2.3"/>
		</g>
		<g>
			<g>
				<rect x="306.3" y="111.9" class="st1" width="34.3" height="35.2"/>
				<rect x="306.3" y="147.1" class="st1" width="4.3" height="4.5"/>
				<rect x="321.3" y="147.1" class="st1" width="4.3" height="4.5"/>
				<rect x="336.3" y="147.1" class="st1" width="4.3" height="4.5"/>
			</g>
			<rect x="308" y="142.2" class="st0" width="30.8" height="2.3"/>
		</g>
		<path class="st0" d="M409,102.4c0.5,0.2,1-0.1,1-0.6V86.3c0-0.5-0.4-1.1-1-1.3l0,0c-0.5-0.2-1,0.1-1,0.6V101
			C408,101.6,408.4,102.2,409,102.4L409,102.4z"/>
		<path class="st0" d="M409,178.6c0.5,0.2,1-0.1,1-0.6v-15.4c0-0.5-0.4-1.1-1-1.3l0,0c-0.5-0.2-1,0.1-1,0.6v15.4
			C408,177.9,408.4,178.5,409,178.6L409,178.6z"/>
	</g>
	<path class="st0" d="M268.8,90.3c0,0.6-0.5,1-1,1l0,0c-0.6,0-1-0.5-1-1V72c0-0.6,0.5-1,1-1l0,0c0.6,0,1,0.5,1,1V90.3z"/>
	<path class="st0" d="M268.8,174.8c0,0.6-0.5,1-1,1l0,0c-0.6,0-1-0.5-1-1v-18.2c0-0.6,0.5-1,1-1l0,0c0.6,0,1,0.5,1,1V174.8z"/>
</g>
</svg>
